<?xml version="1.0" standalone="no"?>
<!DOCTYPE svg PUBLIC "-//W3C//DTD SVG 20010904//EN"
 "http://www.w3.org/TR/2001/REC-SVG-20010904/DTD/svg10.dtd">
<svg version="1.0" xmlns="http://www.w3.org/2000/svg"
 width="260.000000pt" height="260.000000pt" viewBox="0 0 260.000000 260.000000"
 preserveAspectRatio="xMidYMid meet">
<metadata>
Created by potrace 1.11, written by Peter Selinger 2001-2013
</metadata>
<g transform="translate(0.000000,260.000000) scale(0.100000,-0.100000)"
fill="#000000" stroke="none">
<path d="M1285 2448 c-17 -23 -94 -135 -210 -303 -131 -191 -354 -513 -398
-577 -26 -37 -47 -69 -47 -71 0 -2 38 -3 85 -3 55 1 84 -3 81 -9 -2 -6 -70
-110 -150 -233 -81 -122 -149 -227 -151 -234 -4 -11 20 -13 112 -13 65 1 121
0 125 -2 6 -3 -92 -164 -112 -183 -13 -13 -192 -290 -191 -295 1 -4 175 -8
388 -9 l387 -1 0 -190 1 -190 98 -3 97 -3 1 28 c0 15 0 103 0 194 l0 167 385
-1 c212 0 387 2 389 5 2 2 -43 75 -100 161 -58 87 -105 162 -105 167 0 4 -4
10 -8 12 -10 4 -92 124 -92 135 0 4 54 8 121 8 66 0 122 2 124 5 1 3 -69 112
-156 243 l-158 237 32 1 c18 1 57 1 88 2 l57 0 -42 61 c-23 34 -67 97 -97 141
-316 459 -505 734 -520 753 l-17 23 -17 -23z m115 -465 c47 -70 109 -160 138
-201 28 -40 52 -78 52 -83 0 -5 -24 -9 -52 -8 -122 3 -126 26 40 -223 82 -123
154 -232 160 -244 11 -20 9 -20 -109 -21 -66 0 -122 -2 -125 -5 -3 -3 64 -111
150 -239 85 -129 153 -236 151 -239 -6 -10 -1005 -5 -1004 5 1 6 68 110 150
233 82 122 150 227 152 234 1 8 -32 11 -121 11 -98 -1 -122 2 -118 12 2 7 71
114 152 237 80 122 148 228 150 233 3 6 -25 9 -76 7 -44 -1 -80 0 -80 4 0 6
139 208 159 231 6 7 11 14 11 17 0 13 114 166 124 166 6 -1 49 -58 96 -127z"/>
</g>
</svg>
